<?xml version="1.0" encoding="UTF-8"?>
<svg xmlns="http://www.w3.org/2000/svg" xmlns:xlink="http://www.w3.org/1999/xlink" width="30px" height="30px" viewBox="0 0 30 30" version="1.1">
<defs>
<filter id="alpha" filterUnits="objectBoundingBox" x="0%" y="0%" width="100%" height="100%">
  <feColorMatrix type="matrix" in="SourceGraphic" values="0 0 0 0 1 0 0 0 0 1 0 0 0 0 1 0 0 0 1 0"/>
</filter>
<mask id="mask0">
  <g filter="url(#alpha)">
<rect x="0" y="0" width="30" height="30" style="fill:rgb(0%,0%,0%);fill-opacity:0.8;stroke:none;"/>
  </g>
</mask>
<linearGradient id="linear0" gradientUnits="userSpaceOnUse" x1="14.66" y1="7.0243" x2="24.031" y2="34.826" gradientTransform="matrix(0.194817,-0.0908575,0.0908575,0.194817,8.494444,10.589719)">
<stop offset="0" style="stop-color:rgb(98.823529%,97.647059%,98.431373%);stop-opacity:1;"/>
<stop offset="1" style="stop-color:rgb(98.823529%,97.647059%,98.431373%);stop-opacity:0;"/>
</linearGradient>
<clipPath id="clip1">
  <rect x="0" y="0" width="30" height="30"/>
</clipPath>
<g id="surface5" clip-path="url(#clip1)">
<path style=" stroke:none;fill-rule:nonzero;fill:url(#linear0);" d="M 14.273438 10.621094 L 15.542969 11.195312 C 16.507812 11.640625 16.015625 11.40625 17.023438 11.898438 C 14.445312 13.113281 16.84375 13.535156 14.253906 15.109375 L 14.257812 14.671875 C 14.289062 12.164062 14.054688 15.875 14.273438 10.621094 Z M 14.273438 10.621094 "/>
</g>
<radialGradient id="radial0" gradientUnits="userSpaceOnUse" cx="28.935429" cy="32.797306" fx="28.935429" fy="32.797306" r="22" gradientTransform="matrix(1.043972,-0.208795,0.208795,1.043972,-147.8058,553.72738)">
<stop offset="0" style="stop-color:rgb(90.196078%,81.176471%,0%);stop-opacity:1;"/>
<stop offset="1" style="stop-color:rgb(99.215686%,91.372549%,29.019608%);stop-opacity:1;"/>
</radialGradient>
<mask id="mask1">
  <g filter="url(#alpha)">
<rect x="0" y="0" width="30" height="30" style="fill:rgb(0%,0%,0%);fill-opacity:0.690196;stroke:none;"/>
  </g>
</mask>
<clipPath id="clip2">
  <rect x="0" y="0" width="30" height="30"/>
</clipPath>
<g id="surface8" clip-path="url(#clip2)">
<path style="fill:none;stroke-width:2.530801;stroke-linecap:butt;stroke-linejoin:miter;stroke:rgb(100%,100%,100%);stroke-opacity:1;stroke-miterlimit:4;" d="M -184.968541 572.364179 C -184.968541 583.820429 -194.256041 593.107929 -205.712291 593.107929 C -217.16854 593.107929 -226.45604 583.820429 -226.45604 572.364179 C -226.45604 560.90793 -217.16854 551.62043 -205.712291 551.62043 C -194.256041 551.62043 -184.968541 560.90793 -184.968541 572.364179 Z M -184.968541 572.364179 " transform="matrix(0.625,0,0,0.625,143.542842,-342.754966)"/>
</g>
</defs>
<g id="surface1">
<use xlink:href="#surface5" mask="url(#mask0)"/>
<path style="fill-rule:nonzero;fill:url(#radial0);stroke-width:2;stroke-linecap:butt;stroke-linejoin:miter;stroke:rgb(0%,0%,0%);stroke-opacity:1;stroke-miterlimit:4;" d="M -182.762291 572.364179 C -182.762291 585.039179 -193.037291 595.314179 -205.712291 595.314179 C -218.39354 595.314179 -228.66854 585.039179 -228.66854 572.364179 C -228.66854 559.68293 -218.39354 549.40793 -205.712291 549.40793 C -193.037291 549.40793 -182.762291 559.68293 -182.762291 572.364179 Z M -182.762291 572.364179 " transform="matrix(0.625,0,0,0.625,143.542842,-342.754966)"/>
<use xlink:href="#surface8" mask="url(#mask1)"/>
<path style=" stroke:none;fill-rule:nonzero;fill:rgb(0%,0%,0%);fill-opacity:1;" d="M 24.25 12.5625 L 23.339844 13.472656 L 20.804688 10.9375 L 21.714844 10.027344 C 22 9.742188 22.433594 9.707031 22.675781 9.949219 L 24.328125 11.601562 C 24.570312 11.84375 24.535156 12.277344 24.25 12.5625 Z M 20.382812 11.359375 L 22.917969 13.894531 L 16.875 19.9375 C 16.847656 19.964844 16.769531 20.042969 16.660156 20.070312 C 16.648438 20.078125 16.636719 20.082031 16.621094 20.085938 L 13.46875 21.089844 C 13.378906 21.117188 13.292969 21.101562 13.234375 21.042969 C 13.175781 20.984375 13.160156 20.898438 13.1875 20.808594 L 14.191406 17.65625 C 14.195312 17.640625 14.199219 17.628906 14.207031 17.617188 C 14.234375 17.507812 14.3125 17.433594 14.339844 17.402344 L 15.476562 16.269531 L 11.640625 16.269531 C 11.484375 16.269531 11.359375 16.144531 11.359375 15.988281 C 11.359375 15.832031 11.484375 15.707031 11.640625 15.707031 L 16.035156 15.707031 Z M 16.09375 19.742188 L 14.535156 18.183594 L 14.117188 19.496094 L 14.78125 20.164062 Z M 20.285156 12.367188 C 20.195312 12.277344 20.050781 12.277344 19.960938 12.367188 L 15.25 17.078125 C 15.160156 17.167969 15.160156 17.3125 15.25 17.402344 C 15.339844 17.492188 15.484375 17.492188 15.574219 17.402344 L 20.285156 12.691406 C 20.375 12.601562 20.375 12.457031 20.285156 12.367188 Z M 20 21.335938 C 20 21.503906 19.863281 21.640625 19.695312 21.640625 C 15.875 21.578125 13.507812 21.640625 9.84375 21.640625 C 9.675781 21.640625 9.539062 21.503906 9.539062 21.335938 L 9.539062 8.507812 C 9.539062 8.339844 9.675781 8.203125 9.84375 8.203125 L 10.992188 8.203125 L 10.992188 8.6875 C 10.992188 8.855469 11.128906 8.992188 11.296875 8.992188 C 11.464844 8.992188 11.601562 8.855469 11.601562 8.6875 L 11.601562 8.203125 L 13.359375 8.203125 L 13.359375 8.6875 C 13.359375 8.855469 13.496094 8.992188 13.664062 8.992188 C 13.832031 8.992188 13.96875 8.855469 13.96875 8.6875 L 13.96875 8.203125 L 15.496094 8.203125 L 15.496094 8.6875 C 15.496094 8.855469 15.632812 8.992188 15.800781 8.992188 C 15.96875 8.992188 16.105469 8.855469 16.105469 8.6875 L 16.105469 8.203125 L 17.785156 8.203125 L 17.785156 8.6875 C 17.785156 8.855469 17.921875 8.992188 18.09375 8.992188 C 18.261719 8.992188 18.398438 8.855469 18.398438 8.6875 L 18.398438 8.203125 L 19.695312 8.203125 C 19.863281 8.203125 20 8.339844 20 8.507812 L 20 10.625 L 20.917969 9.707031 L 20.917969 8.507812 C 20.917969 7.835938 20.371094 7.289062 19.695312 7.289062 L 18.398438 7.289062 L 18.398438 6.550781 C 18.398438 6.378906 18.261719 6.242188 18.09375 6.242188 C 17.921875 6.242188 17.785156 6.378906 17.785156 6.550781 L 17.785156 7.289062 L 16.105469 7.289062 L 16.105469 6.550781 C 16.105469 6.378906 15.96875 6.242188 15.800781 6.242188 C 15.632812 6.242188 15.496094 6.378906 15.496094 6.550781 L 15.496094 7.289062 L 13.96875 7.289062 L 13.96875 6.550781 C 13.96875 6.378906 13.832031 6.242188 13.664062 6.242188 C 13.492188 6.242188 13.355469 6.378906 13.355469 6.550781 L 13.355469 7.289062 L 11.601562 7.289062 L 11.601562 6.550781 C 11.601562 6.378906 11.464844 6.242188 11.296875 6.242188 C 11.128906 6.242188 10.992188 6.378906 10.992188 6.550781 L 10.992188 7.289062 L 9.84375 7.289062 C 9.171875 7.289062 8.625 7.835938 8.625 8.507812 L 8.625 21.335938 C 8.625 22.011719 9.171875 22.558594 9.84375 22.558594 L 19.695312 22.558594 C 20.367188 22.558594 20.917969 22.011719 20.917969 21.335938 L 20.917969 16.890625 L 20 17.804688 Z M 17.613281 10.945312 L 11.640625 10.945312 C 11.484375 10.945312 11.359375 11.070312 11.359375 11.226562 C 11.359375 11.382812 11.484375 11.507812 11.640625 11.507812 L 17.613281 11.507812 C 17.769531 11.507812 17.894531 11.382812 17.894531 11.226562 C 17.894531 11.070312 17.769531 10.945312 17.613281 10.945312 Z M 17.613281 13.203125 L 11.640625 13.203125 C 11.484375 13.203125 11.359375 13.328125 11.359375 13.484375 C 11.359375 13.640625 11.484375 13.765625 11.640625 13.765625 L 17.613281 13.765625 C 17.769531 13.765625 17.894531 13.640625 17.894531 13.484375 C 17.894531 13.328125 17.769531 13.203125 17.613281 13.203125 Z M 17.613281 13.203125 "/>
</g>
</svg>
