<?xml version="1.0" encoding="UTF-8"?>
<svg xmlns="http://www.w3.org/2000/svg" xmlns:xlink="http://www.w3.org/1999/xlink" width="26px" height="31px" viewBox="0 0 26 30" version="1.1">
<g id="surface1">
<path style=" stroke:none;fill-rule:nonzero;fill:rgb(38.431373%,69.019608%,87.45098%);fill-opacity:1;" d="M 22.652344 25.511719 C 24.507812 25.511719 26 24.042969 26 22.222656 L 26 3.285156 C 26 1.464844 24.507812 0 22.652344 0 L 3.347656 0 C 1.492188 0 0 1.464844 0 3.285156 L 0 22.222656 C 0 24.042969 1.492188 25.511719 3.347656 25.511719 L 15.367188 25.511719 L 15.367188 29.996094 L 20.566406 25.511719 Z M 22.652344 25.511719 "/>
<path style=" stroke:none;fill-rule:nonzero;fill:rgb(100%,100%,100%);fill-opacity:1;" d="M 17.632812 3.6875 C 17.144531 3.6875 16.648438 3.738281 16.230469 3.839844 C 15.007812 4.132812 13.957031 4.8125 13.324219 5.71875 C 13.175781 5.929688 13.035156 6.101562 13.003906 6.101562 C 12.976562 6.101562 12.835938 5.929688 12.699219 5.722656 C 11.839844 4.449219 10.210938 3.683594 8.375 3.691406 C 7.402344 3.699219 6.738281 3.851562 5.851562 4.285156 C 4.695312 4.847656 3.835938 5.707031 3.257812 6.882812 C 2.851562 7.710938 2.714844 8.238281 2.660156 9.136719 C 2.566406 10.664062 3.019531 12.265625 3.976562 13.878906 L 6.746094 13.878906 C 6.847656 13.878906 6.9375 13.941406 6.972656 14.03125 L 7.175781 14.542969 L 7.34375 14.074219 C 7.378906 13.976562 7.46875 13.914062 7.574219 13.914062 L 8.273438 13.914062 L 8.957031 11.398438 C 8.988281 11.296875 9.085938 11.222656 9.195312 11.222656 C 9.304688 11.222656 9.402344 11.296875 9.429688 11.398438 L 10.085938 13.796875 L 10.78125 13.796875 C 10.902344 13.796875 11.003906 13.882812 11.023438 14 L 11.09375 14.480469 L 11.714844 5.886719 C 11.722656 5.761719 11.828125 5.664062 11.953125 5.660156 C 12.082031 5.660156 12.191406 5.753906 12.203125 5.878906 L 13.269531 17.605469 L 13.765625 14.132812 C 13.785156 14.011719 13.886719 13.925781 14.007812 13.921875 L 15.734375 13.921875 L 17.0625 11.667969 C 17.105469 11.59375 17.183594 11.546875 17.273438 11.546875 C 17.359375 11.546875 17.441406 11.59375 17.484375 11.667969 L 18.769531 13.847656 L 22.058594 13.847656 C 22.632812 12.871094 23.039062 11.886719 23.257812 10.914062 C 23.398438 10.292969 23.378906 8.636719 23.222656 8.046875 C 23.054688 7.390625 22.5 6.289062 22.097656 5.796875 C 21.347656 4.882812 20.171875 4.140625 18.996094 3.839844 C 18.605469 3.738281 18.121094 3.6875 17.632812 3.6875 Z M 11.984375 8.90625 L 11.421875 16.730469 C 11.410156 16.851562 11.308594 16.945312 11.183594 16.953125 C 11.0625 16.957031 10.953125 16.871094 10.933594 16.75 L 10.570312 14.277344 L 9.898438 14.277344 C 9.789062 14.277344 9.691406 14.203125 9.664062 14.097656 L 9.195312 12.390625 L 8.695312 14.214844 C 8.667969 14.320312 8.570312 14.394531 8.460938 14.390625 L 7.75 14.390625 L 7.421875 15.320312 C 7.386719 15.414062 7.296875 15.480469 7.195312 15.480469 C 7.089844 15.480469 7 15.421875 6.960938 15.328125 L 6.578125 14.359375 L 4.273438 14.359375 C 5.851562 16.777344 8.539062 19.210938 12.175781 21.453125 C 12.609375 21.71875 12.984375 21.9375 13.011719 21.9375 C 13.09375 21.9375 14.59375 20.996094 15.472656 20.394531 C 18.292969 18.460938 20.414062 16.40625 21.761719 14.328125 L 18.628906 14.328125 C 18.539062 14.328125 18.460938 14.28125 18.417969 14.210938 L 17.273438 12.269531 L 16.085938 14.285156 C 16.042969 14.359375 15.960938 14.40625 15.875 14.40625 L 14.222656 14.40625 L 13.460938 19.75 C 13.441406 19.867188 13.335938 19.957031 13.210938 19.953125 C 13.089844 19.949219 12.984375 19.859375 12.972656 19.738281 Z M 21.976562 13.984375 C 21.941406 14.039062 21.90625 14.09375 21.871094 14.152344 C 21.90625 14.09375 21.941406 14.039062 21.976562 13.984375 Z M 21.871094 14.152344 C 21.835938 14.210938 21.800781 14.269531 21.761719 14.328125 C 21.800781 14.269531 21.835938 14.210938 21.871094 14.152344 Z M 4.121094 14.117188 C 4.167969 14.191406 4.214844 14.265625 4.261719 14.339844 C 4.214844 14.265625 4.167969 14.191406 4.121094 14.117188 Z M 4.121094 14.117188 "/>
</g>
</svg>
