<?xml version="1.0" encoding="UTF-8"?>
<svg xmlns="http://www.w3.org/2000/svg" xmlns:xlink="http://www.w3.org/1999/xlink" width="30px" height="30px" viewBox="0 0 30 30" version="1.1">
<g id="surface1">
<path style=" stroke:none;fill-rule:nonzero;fill:rgb(74.509804%,74.509804%,74.509804%);fill-opacity:1;" d="M 6.007812 3.75 L 23.4375 3.75 L 23.4375 4.6875 L 6.007812 4.6875 Z M 6.007812 3.75 "/>
<path style=" stroke:none;fill-rule:nonzero;fill:rgb(42.745098%,77.254902%,86.666667%);fill-opacity:1;" d="M 24.84375 2.34375 L 4.6875 2.34375 L 4.6875 28.59375 L 24.84375 28.59375 Z M 23.4375 3.75 L 23.4375 4.6875 L 22.5 4.6875 L 22.5 3.75 Z M 21.09375 3.75 L 21.09375 4.6875 L 20.15625 4.6875 L 20.15625 3.75 Z M 18.75 3.75 L 18.75 4.6875 L 17.8125 4.6875 L 17.8125 3.75 Z M 16.40625 3.75 L 16.40625 4.6875 L 15.46875 4.6875 L 15.46875 3.75 Z M 14.0625 3.75 L 14.0625 4.6875 L 13.125 4.6875 L 13.125 3.75 Z M 11.71875 3.75 L 11.71875 4.6875 L 10.78125 4.6875 L 10.78125 3.75 Z M 9.375 3.75 L 9.375 4.6875 L 8.4375 4.6875 L 8.4375 3.75 Z M 7.03125 3.75 L 7.03125 4.6875 L 6.09375 4.6875 L 6.09375 3.75 Z M 7.03125 3.75 "/>
<path style=" stroke:none;fill-rule:nonzero;fill:rgb(0%,0%,0%);fill-opacity:0.196078;" d="M 24.84375 2.34375 L 24.84375 3.71875 L 6.09375 3.71875 L 6.09375 4.21875 L 24.84375 4.21875 L 24.84375 29.0625 L 28.125 29.0625 L 28.125 2.34375 Z M 24.84375 2.34375 "/>
<path style=" stroke:none;fill-rule:nonzero;fill:rgb(50.196078%,50.196078%,50.196078%);fill-opacity:1;" d="M 4.6875 28.613281 L 24.84375 28.613281 L 24.84375 29.082031 L 4.6875 29.082031 Z M 4.6875 28.613281 "/>
<path style=" stroke:none;fill-rule:nonzero;fill:rgb(25.098039%,25.098039%,25.098039%);fill-opacity:1;" d="M 6.09375 0.46875 L 6.09375 4.21875 L 7.03125 4.21875 L 7.03125 0.46875 Z M 8.4375 0.46875 L 8.4375 4.21875 L 9.375 4.21875 L 9.375 0.46875 Z M 10.78125 0.46875 L 10.78125 4.21875 L 11.71875 4.21875 L 11.71875 0.46875 Z M 13.125 0.46875 L 13.125 4.21875 L 14.0625 4.21875 L 14.0625 0.46875 Z M 15.46875 0.46875 L 15.46875 4.21875 L 16.40625 4.21875 L 16.40625 0.46875 Z M 17.8125 0.46875 L 17.8125 4.21875 L 18.75 4.21875 L 18.75 0.46875 Z M 20.15625 0.46875 L 20.15625 4.21875 L 21.09375 4.21875 L 21.09375 0.46875 Z M 22.5 0.46875 L 22.5 4.21875 L 23.4375 4.21875 L 23.4375 0.46875 Z M 22.5 0.46875 "/>
<path style=" stroke:none;fill-rule:nonzero;fill:rgb(25.098039%,25.098039%,25.098039%);fill-opacity:1;" d="M 4.6875 22.050781 L 24.84375 22.050781 L 24.84375 22.988281 L 4.6875 22.988281 Z M 4.6875 22.050781 "/>
<path style=" stroke:none;fill-rule:nonzero;fill:rgb(94.901961%,94.901961%,94.901961%);fill-opacity:1;" d="M 8.90625 6.582031 L 20.625 6.582031 L 20.625 11.738281 L 8.90625 11.738281 Z M 8.90625 6.582031 "/>
</g>
</svg>
